<svg width="150" height="150" viewBox="0 0 150 150" fill="none" xmlns="http://www.w3.org/2000/svg">
<circle cx="75" cy="75" r="75" fill="white"/>
<path d="M79.5049 62L82.1553 64.8975L82.4521 65.2227H88C89.2199 65.2227 90.2226 66.2244 90.2227 67.4443V86.7773C90.2227 87.9973 89.2199 89 88 89H62.2227C61.0027 89 60 87.9973 60 86.7773V67.4443C60.0001 66.2244 61.0028 65.2227 62.2227 65.2227H67.7695L68.0674 64.8975L70.7178 62H79.5049ZM75.1113 68.0557C70.1124 68.0557 66.0557 72.1124 66.0557 77.1113C66.0558 82.1102 70.1124 86.167 75.1113 86.167C80.1101 86.1669 84.1669 82.1101 84.167 77.1113C84.167 72.1124 80.1102 68.0558 75.1113 68.0557Z" stroke="black" stroke-width="2"/>
</svg>
