<svg width="58" height="58" viewBox="0 0 58 58" fill="none" xmlns="http://www.w3.org/2000/svg">
<g filter="url(#filter0_d_3566_1479)">
<path d="M29 0C42.8071 0 54 11.1929 54 25C54 38.8071 42.8071 50 29 50C15.1929 50 4 38.8071 4 25C4 11.1929 15.1929 0 29 0Z" fill="black"/>
<path d="M29 0.5C42.531 0.5 53.5 11.469 53.5 25C53.5 38.531 42.531 49.5 29 49.5C15.469 49.5 4.5 38.531 4.5 25C4.5 11.469 15.469 0.5 29 0.5Z" stroke="white"/>
</g>
<mask id="path-3-outside-1_3566_1479" maskUnits="userSpaceOnUse" x="23" y="17" width="11" height="13" fill="black">
<rect fill="white" x="23" y="17" width="11" height="13"/>
<path d="M26.925 27.98H27.9V29H24.75V27.98H25.695V22.52H24.75V21.5H26.925V27.98ZM26.31 18.74C26.52 18.74 26.695 18.82 26.835 18.98C26.985 19.13 27.06 19.315 27.06 19.535C27.06 19.745 26.985 19.925 26.835 20.075C26.695 20.215 26.515 20.285 26.295 20.285C26.085 20.285 25.905 20.215 25.755 20.075C25.615 19.925 25.545 19.745 25.545 19.535C25.545 19.315 25.62 19.13 25.77 18.98C25.92 18.82 26.1 18.74 26.31 18.74ZM31.4221 27.98H32.3971V29H29.2471V27.98H30.1921V22.52H29.2471V21.5H31.4221V27.98ZM30.8071 18.74C31.0171 18.74 31.1921 18.82 31.3321 18.98C31.4821 19.13 31.5571 19.315 31.5571 19.535C31.5571 19.745 31.4821 19.925 31.3321 20.075C31.1921 20.215 31.0121 20.285 30.7921 20.285C30.5821 20.285 30.4021 20.215 30.2521 20.075C30.1121 19.925 30.0421 19.745 30.0421 19.535C30.0421 19.315 30.1171 19.13 30.2671 18.98C30.4171 18.82 30.5971 18.74 30.8071 18.74Z"/>
</mask>
<path d="M26.925 27.98H27.9V29H24.75V27.98H25.695V22.52H24.75V21.5H26.925V27.98ZM26.31 18.74C26.52 18.74 26.695 18.82 26.835 18.98C26.985 19.13 27.06 19.315 27.06 19.535C27.06 19.745 26.985 19.925 26.835 20.075C26.695 20.215 26.515 20.285 26.295 20.285C26.085 20.285 25.905 20.215 25.755 20.075C25.615 19.925 25.545 19.745 25.545 19.535C25.545 19.315 25.62 19.13 25.77 18.98C25.92 18.82 26.1 18.74 26.31 18.74ZM31.4221 27.98H32.3971V29H29.2471V27.98H30.1921V22.52H29.2471V21.5H31.4221V27.98ZM30.8071 18.74C31.0171 18.74 31.1921 18.82 31.3321 18.98C31.4821 19.13 31.5571 19.315 31.5571 19.535C31.5571 19.745 31.4821 19.925 31.3321 20.075C31.1921 20.215 31.0121 20.285 30.7921 20.285C30.5821 20.285 30.4021 20.215 30.2521 20.075C30.1121 19.925 30.0421 19.745 30.0421 19.535C30.0421 19.315 30.1171 19.13 30.2671 18.98C30.4171 18.82 30.5971 18.74 30.8071 18.74Z" fill="white"/>
<path d="M26.925 27.98H25.925V28.98H26.925V27.98ZM27.9 27.98H28.9V26.98H27.9V27.98ZM27.9 29V30H28.9V29H27.9ZM24.75 29H23.75V30H24.75V29ZM24.75 27.98V26.98H23.75V27.98H24.75ZM25.695 27.98V28.98H26.695V27.98H25.695ZM25.695 22.52H26.695V21.52H25.695V22.52ZM24.75 22.52H23.75V23.52H24.75V22.52ZM24.75 21.5V20.5H23.75V21.5H24.75ZM26.925 21.5H27.925V20.5H26.925V21.5ZM26.835 18.98L26.0824 19.6385L26.1043 19.6636L26.1279 19.6871L26.835 18.98ZM26.835 20.075L26.1279 19.3679L26.1279 19.3679L26.835 20.075ZM25.755 20.075L25.0239 20.7573L25.0475 20.7825L25.0727 20.8061L25.755 20.075ZM25.77 18.98L26.4771 19.6871L26.4885 19.6757L26.4995 19.6639L25.77 18.98ZM26.925 27.98V28.98H27.9V27.98V26.98H26.925V27.98ZM27.9 27.98H26.9V29H27.9H28.9V27.98H27.9ZM27.9 29V28H24.75V29V30H27.9V29ZM24.75 29H25.75V27.98H24.75H23.75V29H24.75ZM24.75 27.98V28.98H25.695V27.98V26.98H24.75V27.98ZM25.695 27.98H26.695V22.52H25.695H24.695V27.98H25.695ZM25.695 22.52V21.52H24.75V22.52V23.52H25.695V22.52ZM24.75 22.52H25.75V21.5H24.75H23.75V22.52H24.75ZM24.75 21.5V22.5H26.925V21.5V20.5H24.75V21.5ZM26.925 21.5H25.925V27.98H26.925H27.925V21.5H26.925ZM26.31 18.74V19.74C26.2848 19.74 26.2375 19.7344 26.183 19.7095C26.1288 19.6847 26.0958 19.6538 26.0824 19.6385L26.835 18.98L27.5876 18.3215C27.2604 17.9476 26.8124 17.74 26.31 17.74V18.74ZM26.835 18.98L26.1279 19.6871C26.1143 19.6735 26.0929 19.6462 26.077 19.607C26.0614 19.5685 26.06 19.5406 26.06 19.535H27.06H28.06C28.06 19.0608 27.8873 18.6181 27.5421 18.2729L26.835 18.98ZM27.06 19.535H26.06C26.06 19.5182 26.0636 19.4839 26.0807 19.4429C26.0977 19.4021 26.1187 19.3771 26.1279 19.3679L26.835 20.075L27.5421 20.7821C27.8775 20.4467 28.06 20.0132 28.06 19.535H27.06ZM26.835 20.075L26.1279 19.3679C26.1534 19.3424 26.19 19.317 26.2326 19.3005C26.273 19.2848 26.2981 19.285 26.295 19.285V20.285V21.285C26.7479 21.285 27.1929 21.1313 27.5421 20.7821L26.835 20.075ZM26.295 20.285V19.285C26.3031 19.285 26.3297 19.2868 26.3649 19.3005C26.4006 19.3144 26.4253 19.3327 26.4373 19.3439L25.755 20.075L25.0727 20.8061C25.4126 21.1233 25.8383 21.285 26.295 21.285V20.285ZM25.755 20.075L26.4861 19.3927C26.4973 19.4047 26.5156 19.4294 26.5295 19.4651C26.5432 19.5003 26.545 19.5269 26.545 19.535H25.545H24.545C24.545 19.9917 24.7067 20.4174 25.0239 20.7573L25.755 20.075ZM25.545 19.535H26.545C26.545 19.5406 26.5436 19.5685 26.528 19.607C26.5121 19.6462 26.4907 19.6735 26.4771 19.6871L25.77 18.98L25.0629 18.2729C24.7177 18.6181 24.545 19.0608 24.545 19.535H25.545ZM25.77 18.98L26.4995 19.6639C26.4935 19.6703 26.4688 19.6937 26.4236 19.7138C26.3775 19.7343 26.3355 19.74 26.31 19.74V18.74V17.74C25.8101 17.74 25.3701 17.9445 25.0405 18.2961L25.77 18.98ZM31.4221 27.98H30.4221V28.98H31.4221V27.98ZM32.3971 27.98H33.3971V26.98H32.3971V27.98ZM32.3971 29V30H33.3971V29H32.3971ZM29.2471 29H28.2471V30H29.2471V29ZM29.2471 27.98V26.98H28.2471V27.98H29.2471ZM30.1921 27.98V28.98H31.1921V27.98H30.1921ZM30.1921 22.52H31.1921V21.52H30.1921V22.52ZM29.2471 22.52H28.2471V23.52H29.2471V22.52ZM29.2471 21.5V20.5H28.2471V21.5H29.2471ZM31.4221 21.5H32.4221V20.5H31.4221V21.5ZM31.3321 18.98L30.5795 19.6385L30.6014 19.6636L30.625 19.6871L31.3321 18.98ZM31.3321 20.075L30.625 19.3679L30.625 19.3679L31.3321 20.075ZM30.2521 20.075L29.521 20.7573L29.5445 20.7825L29.5698 20.8061L30.2521 20.075ZM30.2671 18.98L30.9742 19.6871L30.9856 19.6757L30.9966 19.6639L30.2671 18.98ZM31.4221 27.98V28.98H32.3971V27.98V26.98H31.4221V27.98ZM32.3971 27.98H31.3971V29H32.3971H33.3971V27.98H32.3971ZM32.3971 29V28H29.2471V29V30H32.3971V29ZM29.2471 29H30.2471V27.98H29.2471H28.2471V29H29.2471ZM29.2471 27.98V28.98H30.1921V27.98V26.98H29.2471V27.98ZM30.1921 27.98H31.1921V22.52H30.1921H29.1921V27.98H30.1921ZM30.1921 22.52V21.52H29.2471V22.52V23.52H30.1921V22.52ZM29.2471 22.52H30.2471V21.5H29.2471H28.2471V22.52H29.2471ZM29.2471 21.5V22.5H31.4221V21.5V20.5H29.2471V21.5ZM31.4221 21.5H30.4221V27.98H31.4221H32.4221V21.5H31.4221ZM30.8071 18.74V19.74C30.7819 19.74 30.7346 19.7344 30.6801 19.7095C30.6258 19.6847 30.5929 19.6538 30.5795 19.6385L31.3321 18.98L32.0846 18.3215C31.7575 17.9476 31.3095 17.74 30.8071 17.74V18.74ZM31.3321 18.98L30.625 19.6871C30.6113 19.6735 30.59 19.6462 30.5741 19.607C30.5585 19.5685 30.5571 19.5406 30.5571 19.535H31.5571H32.5571C32.5571 19.0608 32.3843 18.6181 32.0392 18.2729L31.3321 18.98ZM31.5571 19.535H30.5571C30.5571 19.5182 30.5607 19.4839 30.5777 19.4429C30.5947 19.4021 30.6158 19.3771 30.625 19.3679L31.3321 20.075L32.0392 20.7821C32.3746 20.4467 32.5571 20.0132 32.5571 19.535H31.5571ZM31.3321 20.075L30.625 19.3679C30.6505 19.3424 30.6871 19.317 30.7296 19.3005C30.7701 19.2848 30.7952 19.285 30.7921 19.285V20.285V21.285C31.245 21.285 31.69 21.1313 32.0392 20.7821L31.3321 20.075ZM30.7921 20.285V19.285C30.8002 19.285 30.8267 19.2868 30.862 19.3005C30.8977 19.3144 30.9224 19.3327 30.9344 19.3439L30.2521 20.075L29.5698 20.8061C29.9097 21.1233 30.3354 21.285 30.7921 21.285V20.285ZM30.2521 20.075L30.9831 19.3927C30.9943 19.4047 31.0127 19.4294 31.0266 19.4651C31.0403 19.5003 31.0421 19.5269 31.0421 19.535H30.0421H29.0421C29.0421 19.9917 29.2037 20.4174 29.521 20.7573L30.2521 20.075ZM30.0421 19.535H31.0421C31.0421 19.5406 31.0407 19.5685 31.0251 19.607C31.0092 19.6462 30.9878 19.6735 30.9742 19.6871L30.2671 18.98L29.56 18.2729C29.2148 18.6181 29.0421 19.0608 29.0421 19.535H30.0421ZM30.2671 18.98L30.9966 19.6639C30.9906 19.6703 30.9659 19.6937 30.9207 19.7138C30.8745 19.7343 30.8326 19.74 30.8071 19.74V18.74V17.74C30.3071 17.74 29.8671 17.9445 29.5375 18.2961L30.2671 18.98Z" fill="black" mask="url(#path-3-outside-1_3566_1479)"/>
<defs>
<filter id="filter0_d_3566_1479" x="0" y="0" width="58" height="58" filterUnits="userSpaceOnUse" color-interpolation-filters="sRGB">
<feFlood flood-opacity="0" result="BackgroundImageFix"/>
<feColorMatrix in="SourceAlpha" type="matrix" values="0 0 0 0 0 0 0 0 0 0 0 0 0 0 0 0 0 0 127 0" result="hardAlpha"/>
<feOffset dy="4"/>
<feGaussianBlur stdDeviation="2"/>
<feComposite in2="hardAlpha" operator="out"/>
<feColorMatrix type="matrix" values="0 0 0 0 0 0 0 0 0 0 0 0 0 0 0 0 0 0 0.25 0"/>
<feBlend mode="normal" in2="BackgroundImageFix" result="effect1_dropShadow_3566_1479"/>
<feBlend mode="normal" in="SourceGraphic" in2="effect1_dropShadow_3566_1479" result="shape"/>
</filter>
</defs>
</svg>
